<svg xmlns="http://www.w3.org/2000/svg" version="1.1" xmlns:xlink="http://www.w3.org/1999/xlink" xmlns:svgjs="http://svgjs.dev/svgjs" width="800px" height="800px" viewBox="0 0 600 400" opacity="0" style="transform: translate(0px); opacity: 1;"><g class="opposite-circles"><rect width="100" height="100" fill="#dd8d0e" x="0" y="0"></rect><g mask="url(&quot;#SvgjsMask1000&quot;)"><circle r="50" cx="0" cy="0" fill="#ffffff"></circle><circle r="50" cx="100" cy="100" fill="#ffffff"></circle></g></g><defs><mask id="SvgjsMask1000"><rect width="100" height="100" fill="#ffffff" x="0" y="0"></rect></mask><mask id="SvgjsMask1001"><rect width="100" height="100" fill="#ffffff" x="0" y="100"></rect></mask><mask id="SvgjsMask1002"><rect width="100" height="100" fill="#ffffff" x="0" y="200"></rect></mask><mask id="SvgjsMask1003"><rect width="100" height="100" fill="#ffffff" x="0" y="300"></rect></mask><mask id="SvgjsMask1004"><rect width="100" height="100" fill="#ffffff" x="100" y="0"></rect></mask><mask id="SvgjsMask1005"><rect width="100" height="100" fill="#ffffff" x="100" y="100"></rect></mask><mask id="SvgjsMask1006"><rect width="100" height="100" fill="#ffffff" x="100" y="200"></rect></mask><mask id="SvgjsMask1007"><rect width="100" height="100" fill="#ffffff" x="100" y="300"></rect></mask><mask id="SvgjsMask1008"><rect width="100" height="100" fill="#ffffff" x="200" y="0"></rect></mask><mask id="SvgjsMask1009"><rect width="100" height="100" fill="#ffffff" x="200" y="100"></rect></mask><mask id="SvgjsMask1010"><rect width="100" height="100" fill="#ffffff" x="200" y="200"></rect></mask><mask id="SvgjsMask1011"><rect width="100" height="100" fill="#ffffff" x="200" y="300"></rect></mask><mask id="SvgjsMask1012"><rect width="100" height="100" fill="#ffffff" x="300" y="0"></rect></mask><mask id="SvgjsMask1013"><rect width="100" height="100" fill="#ffffff" x="300" y="100"></rect></mask><mask id="SvgjsMask1014"><rect width="100" height="100" fill="#ffffff" x="300" y="200"></rect></mask><mask id="SvgjsMask1015"><rect width="100" height="100" fill="#ffffff" x="300" y="300"></rect></mask><mask id="SvgjsMask1016"><rect width="100" height="100" fill="#ffffff" x="400" y="0"></rect></mask><mask id="SvgjsMask1017"><rect width="100" height="100" fill="#ffffff" x="400" y="100"></rect></mask><mask id="SvgjsMask1018"><rect width="100" height="100" fill="#ffffff" x="400" y="200"></rect></mask><mask id="SvgjsMask1019"><rect width="100" height="100" fill="#ffffff" x="400" y="300"></rect></mask><mask id="SvgjsMask1020"><rect width="100" height="100" fill="#ffffff" x="500" y="0"></rect></mask><mask id="SvgjsMask1021"><rect width="100" height="100" fill="#ffffff" x="500" y="100"></rect></mask><mask id="SvgjsMask1022"><rect width="100" height="100" fill="#ffffff" x="500" y="200"></rect></mask><mask id="SvgjsMask1023"><rect width="100" height="100" fill="#ffffff" x="500" y="300"></rect></mask></defs><g class="opposite-circles"><rect width="100" height="100" fill="#ffffff" x="0" y="100"></rect><g mask="url(&quot;#SvgjsMask1001&quot;)"><circle r="50" cx="0" cy="200" fill="#33006c"></circle><circle r="50" cx="100" cy="100" fill="#33006c"></circle></g></g><g class="quarter-circle"><rect width="100" height="100" fill="#009599" x="0" y="200"></rect><g mask="url(&quot;#SvgjsMask1002&quot;)"><circle r="100" cx="0" cy="300" fill="#ffffff"></circle><circle r="50" cx="0" cy="300" fill="#009599"></circle></g></g><g class="opposite-circles"><rect width="100" height="100" fill="#009599" x="0" y="300"></rect><g mask="url(&quot;#SvgjsMask1003&quot;)"><circle r="50" cx="0" cy="300" fill="#dd8d0e"></circle><circle r="50" cx="100" cy="400" fill="#dd8d0e"></circle></g></g><g class="half-square" mask="url(&quot;#SvgjsMask1004&quot;)"><rect width="100" height="100" fill="#009599" x="100" y="0"></rect><text font-family="Fabrik" font-size="100" font-weight="800" text-anchor="middle" fill="#ffffff" x="150.00000381469727" y="88.57994079589844">A</text></g><g class="opposite-circles"><rect width="100" height="100" fill="#33006c" x="100" y="100"></rect><g mask="url(&quot;#SvgjsMask1005&quot;)"><circle r="50" cx="100" cy="200" fill="#dd8d0e"></circle><circle r="50" cx="200" cy="100" fill="#dd8d0e"></circle></g></g><g class="half-square" mask="url(&quot;#SvgjsMask1006&quot;)"><rect width="100" height="100" fill="#33006c" x="100" y="200"></rect><text font-family="Fabrik" font-size="100" font-weight="800" text-anchor="middle" fill="#ffffff" x="150" y="288.57994079589844">D</text></g><g class="quarter-circle"><rect width="100" height="100" fill="#33006c" x="100" y="300"></rect><g mask="url(&quot;#SvgjsMask1007&quot;)"><circle r="100" cx="100" cy="400" fill="#dd8d0e"></circle><circle r="50" cx="100" cy="400" fill="#33006c"></circle></g></g><g class="opposite-circles"><rect width="100" height="100" fill="#33006c" x="200" y="0"></rect><g mask="url(&quot;#SvgjsMask1008&quot;)"><circle r="50" cx="200" cy="100" fill="#009599"></circle><circle r="50" cx="300" cy="0" fill="#009599"></circle></g></g><g class="half-square" mask="url(&quot;#SvgjsMask1009&quot;)"><rect width="100" height="100" fill="#009599" x="200" y="100"></rect><text font-family="Fabrik" font-size="100" font-weight="800" text-anchor="middle" fill="#33006c" x="250" y="188.57994079589844">I</text></g><g class="quarter-circle"><rect width="100" height="100" fill="#33006c" x="200" y="200"></rect><g mask="url(&quot;#SvgjsMask1010&quot;)"><circle r="100" cx="300" cy="200" fill="#dd8d0e"></circle><circle r="50" cx="300" cy="200" fill="#33006c"></circle></g></g><g class="half-square" mask="url(&quot;#SvgjsMask1011&quot;)"><rect width="100" height="100" fill="#33006c" x="200" y="300"></rect><text font-family="Fabrik" font-size="100" font-weight="800" text-anchor="middle" fill="#ffffff" x="249.99999809265137" y="388.57994079589844">K</text></g><g class="quarter-circle"><rect width="100" height="100" fill="#33006c" x="300" y="0"></rect><g mask="url(&quot;#SvgjsMask1012&quot;)"><circle r="100" cx="400" cy="100" fill="#009599"></circle><circle r="50" cx="400" cy="100" fill="#33006c"></circle></g></g><g class="half-square" mask="url(&quot;#SvgjsMask1013&quot;)"><rect width="100" height="100" fill="#dd8d0e" x="300" y="100"></rect><text font-family="Fabrik" font-size="100" font-weight="800" text-anchor="middle" fill="#ffffff" x="350" y="188.57994079589844">O</text></g><g class="quarter-circle"><rect width="100" height="100" fill="#ffffff" x="300" y="200"></rect><g mask="url(&quot;#SvgjsMask1014&quot;)"><circle r="100" cx="300" cy="200" fill="#33006c"></circle></g></g><g class="quarter-circle"><rect width="100" height="100" fill="#33006c" x="300" y="300"></rect><g mask="url(&quot;#SvgjsMask1015&quot;)"><circle r="100" cx="300" cy="300" fill="#009599"></circle><circle r="50" cx="300" cy="300" fill="#33006c"></circle></g></g><g class="quarter-circle"><rect width="100" height="100" fill="#dd8d0e" x="400" y="0"></rect><g mask="url(&quot;#SvgjsMask1016&quot;)"><circle r="100" cx="400" cy="0" fill="#ffffff"></circle></g></g><g class="quarter-circle"><rect width="100" height="100" fill="#dd8d0e" x="400" y="100"></rect><g mask="url(&quot;#SvgjsMask1017&quot;)"><circle r="100" cx="500" cy="100" fill="#009599"></circle></g></g><g class="half-square" mask="url(&quot;#SvgjsMask1018&quot;)"><rect width="100" height="100" fill="#ffffff" x="400" y="200"></rect><text font-family="Fabrik" font-size="100" font-weight="800" text-anchor="middle" fill="#009599" x="450" y="288.57994079589844">W</text></g><g class="quarter-circle"><rect width="100" height="100" fill="#33006c" x="400" y="300"></rect><g mask="url(&quot;#SvgjsMask1019&quot;)"><circle r="100" cx="400" cy="300" fill="#009599"></circle><circle r="50" cx="400" cy="300" fill="#33006c"></circle></g></g><g class="half-square" mask="url(&quot;#SvgjsMask1020&quot;)"><rect width="100" height="100" fill="#009599" x="500" y="0"></rect><text font-family="Fabrik" font-size="100" font-weight="800" text-anchor="middle" fill="#33006c" x="550" y="50"></text></g><g class="quarter-circle"><rect width="100" height="100" fill="#dd8d0e" x="500" y="100"></rect><g mask="url(&quot;#SvgjsMask1021&quot;)"><circle r="100" cx="600" cy="100" fill="#33006c"></circle><circle r="50" cx="600" cy="100" fill="#dd8d0e"></circle></g></g><g class="quarter-circle"><rect width="100" height="100" fill="#ffffff" x="500" y="200"></rect><g mask="url(&quot;#SvgjsMask1022&quot;)"><circle r="100" cx="600" cy="200" fill="#dd8d0e"></circle><circle r="50" cx="600" cy="200" fill="#ffffff"></circle></g></g><g class="opposite-circles"><rect width="100" height="100" fill="#dd8d0e" x="500" y="300"></rect><g mask="url(&quot;#SvgjsMask1023&quot;)"><circle r="50" cx="500" cy="300" fill="#ffffff"></circle><circle r="50" cx="600" cy="400" fill="#ffffff"></circle></g></g></svg>
