<svg xmlns="http://www.w3.org/2000/svg" version="1.1" xmlns:xlink="http://www.w3.org/1999/xlink" width="100%" height="100%" viewBox="0 0 800 300" opacity="0" style="translate: none; rotate: none; scale: none; transform: translate(0px); opacity: 1;"><g class="quarter-circle"><rect width="100" height="100" fill="#33006c" x="0" y="0"></rect><g mask="url(#SvgjsMask1592)"><circle r="100" cx="0" cy="100" fill="#009599"></circle></g></g><defs><mask id="SvgjsMask1592"><rect width="100" height="100" fill="#ffffff" x="0" y="0"></rect></mask><mask id="SvgjsMask1593"><rect width="100" height="100" fill="#ffffff" x="200" y="100"></rect></mask><mask id="SvgjsMask1594"><rect width="100" height="100" fill="#ffffff" x="300" y="100"></rect></mask><mask id="SvgjsMask1595"><rect width="100" height="100" fill="#ffffff" x="300" y="200"></rect></mask><mask id="SvgjsMask1596"><rect width="100" height="100" fill="#ffffff" x="400" y="0"></rect></mask><mask id="SvgjsMask1597"><rect width="100" height="100" fill="#ffffff" x="500" y="100"></rect></mask><mask id="SvgjsMask1598"><rect width="100" height="100" fill="#ffffff" x="500" y="200"></rect></mask><mask id="SvgjsMask1599"><rect width="100" height="100" fill="#ffffff" x="700" y="0"></rect></mask><mask id="SvgjsMask1600"><rect width="100" height="100" fill="#ffffff" x="700" y="100"></rect></mask></defs><g class="half-square"><rect width="100" height="100" fill="#009599" x="0" y="100"></rect><rect width="100" height="50" fill="#33006c" x="0" y="100"></rect></g><g class="diagonal-square"><rect width="100" height="100" fill="#33006c" x="0" y="200"></rect><polygon points="0,200 0,300, 100,200" fill="#009599"></polygon></g><g class="half-square"><rect width="100" height="100" fill="#009599" x="100" y="0"></rect><rect width="100" height="50" fill="#ffffff" x="100" y="0"></rect></g><g class="draw-circle"><rect width="100" height="100" fill="#ffffff" x="100" y="100"></rect><circle r="50" cx="150" cy="150" fill="#33006c"></circle></g><g class="diagonal-square"><rect width="100" height="100" fill="#ffffff" x="100" y="200"></rect><polygon points="100,200 200,200 200,300" fill="#dd8d0e"></polygon></g><g class="diagonal-square"><rect width="100" height="100" fill="#009599" x="200" y="0"></rect><polygon points="200,0 300,0 300,100" fill="#dd8d0e"></polygon></g><g class="quarter-circle"><rect width="100" height="100" fill="#33006c" x="200" y="100"></rect><g mask="url(#SvgjsMask1593)"><circle r="100" cx="200" cy="100" fill="#ffffff"></circle></g></g><g class="half-square"><rect width="100" height="100" fill="#dd8d0e" x="200" y="200"></rect><rect width="50" height="100" fill="#33006c" x="200" y="200"></rect></g><g class="diagonal-square"><rect width="100" height="100" fill="#33006c" x="300" y="0"></rect><polygon points="300,0 300,100, 400,0" fill="#009599"></polygon></g><g class="quarter-circle"><rect width="100" height="100" fill="#33006c" x="300" y="100"></rect><g mask="url(#SvgjsMask1594)"><circle r="100" cx="300" cy="200" fill="#009599"></circle><circle r="50" cx="300" cy="200" fill="#33006c"></circle></g></g><g class="quarter-circle"><rect width="100" height="100" fill="#33006c" x="300" y="200"></rect><g mask="url(#SvgjsMask1595)"><circle r="100" cx="300" cy="200" fill="#dd8d0e"></circle><circle r="50" cx="300" cy="200" fill="#33006c"></circle></g></g><g class="opposite-circles"><rect width="100" height="100" fill="#009599" x="400" y="0"></rect><g mask="url(#SvgjsMask1596)"><circle r="50" cx="400" cy="0" fill="#33006c"></circle><circle r="50" cx="500" cy="100" fill="#33006c"></circle></g></g><g class="diagonal-square"><rect width="100" height="100" fill="#dd8d0e" x="400" y="100"></rect><polygon points="400,100 500,100 500,200" fill="#33006c"></polygon></g><g class="draw-circle"><rect width="100" height="100" fill="#33006c" x="400" y="200"></rect><circle r="50" cx="450" cy="250" fill="#009599"></circle></g><g class="diagonal-square"><rect width="100" height="100" fill="#ffffff" x="500" y="0"></rect><polygon points="500,0 600,0 600,100" fill="#33006c"></polygon></g><g class="opposite-circles"><rect width="100" height="100" fill="#33006c" x="500" y="100"></rect><g mask="url(#SvgjsMask1597)"><circle r="50" cx="500" cy="100" fill="#dd8d0e"></circle><circle r="50" cx="600" cy="200" fill="#dd8d0e"></circle></g></g><g class="quarter-circle"><rect width="100" height="100" fill="#33006c" x="500" y="200"></rect><g mask="url(#SvgjsMask1598)"><circle r="100" cx="500" cy="200" fill="#009599"></circle><circle r="50" cx="500" cy="200" fill="#33006c"></circle></g></g><g class="diagonal-square"><rect width="100" height="100" fill="#ffffff" x="600" y="0"></rect><polygon points="600,0 600,100, 700,0" fill="#009599"></polygon></g><g class="half-square"><rect width="100" height="100" fill="#dd8d0e" x="600" y="100"></rect><rect width="50" height="100" fill="#33006c" x="600" y="100"></rect></g><g class="draw-circle"><rect width="100" height="100" fill="#009599" x="600" y="200"></rect><circle r="50" cx="650" cy="250" fill="#dd8d0e"></circle></g><g class="opposite-circles"><rect width="100" height="100" fill="#009599" x="700" y="0"></rect><g mask="url(#SvgjsMask1599)"><circle r="50" cx="700" cy="0" fill="#dd8d0e"></circle><circle r="50" cx="800" cy="100" fill="#dd8d0e"></circle></g></g><g class="quarter-circle"><rect width="100" height="100" fill="#009599" x="700" y="100"></rect><g mask="url(#SvgjsMask1600)"><circle r="100" cx="800" cy="100" fill="#33006c"></circle><circle r="50" cx="800" cy="100" fill="#009599"></circle></g></g><g class="diagonal-square"><rect width="100" height="100" fill="#ffffff" x="700" y="200"></rect><polygon points="700,200 800,200 800,300" fill="#dd8d0e"></polygon></g></svg>